<svg xmlns="http://www.w3.org/2000/svg" version="1.0" width="1000.000000pt" height="1000.000000pt" viewBox="0 0 1000.000000 1000.000000" preserveAspectRatio="xMidYMid meet"><metadata>
Created by potrace 1.13, written by Peter Selinger 2001-2015
</metadata><g transform="translate(0.000000,1000.000000) scale(0.100000,-0.100000)" fill="#000000" stroke="none"><path d="M3410 8605c-140-140-257-252-260-250-4 2-7 82-8 177l-2 173-925 3-925 2 0-3710 0-3710 3710 0 3710 0 0 3013 0 3012-698 698-697 697-228-2-227-3 0-1502 0-1503-1860 0-1861 0 2 265c1 146 4 267 8 270 4 2 119-108 257-246 137-137 253-249 259-249 5 0 226 216 490 480l480 480 480-480c264-264 484-480 490-480 6 0 105 95 220 210l210 210 177 0 178 0 0 1045 0 1045-101 0c-65 0-98 4-94 10 4 6-127 143-291 306l-297 296-481-481c-265-265-486-481-491-481-6 0-213 204-460 452-248 249-464 465-481 480l-30 27-254-254zm188-1752c-243-243-445-440-449-437-9 5-11 1743-2 1757 3 5 205-190 449-434l444-444-442-442zm1862 440l0-228-110 110c-60 61-109 114-110 120 0 8 209 225 217 225 2 0 3-102 3-227zm2320-3918l0-1625-2780 0-2780 0 0 1625 0 1625 2780 0 2780 0 0-1625zM2687 4533c-4-3-7-109-7-235l0-228 2320 0 2320 0-2 233-3 232-2311 3c-1271 1-2314-1-2317-5zM2682 3378l3-233 2315 0 2315 0 3 233 2 232-2320 0-2320 0 2-232zM2680 2450l0-230 2320 0 2320 0 0 230 0 230-2320 0-2320 0 0-230z"/></g></svg>